<svg width="114" height="114" viewBox="0 0 114 114" fill="none" xmlns="http://www.w3.org/2000/svg">
<circle cx="56.6133" cy="57.375" r="56.6133" fill="#6ABEFE"/>
<path d="M56.5075 28.0937C48.4061 28.0937 41.8386 34.6198 41.8386 42.6673L41.8386 54.3261C41.8386 62.3736 48.4061 68.8997 56.5075 68.8997C64.609 68.8997 71.1764 62.3736 71.1764 54.3261L71.1764 42.6673C71.1764 34.6198 64.609 28.0937 56.5075 28.0937ZM56.5457 33.9232C61.4066 33.9232 65.347 37.8376 65.347 42.6673L65.347 54.3261C65.347 59.1558 61.4066 63.0702 56.5457 63.0702C51.6848 63.0702 47.7441 59.1558 47.7441 54.3261L47.7441 42.6673C47.7441 37.8376 51.6848 33.9232 56.5457 33.9232ZM37.0699 63.0207C36.3459 62.8225 35.4735 62.8546 34.7687 63.251C33.3595 64.0467 32.8692 65.8596 33.6687 67.2616C37.8359 74.5571 44.9947 79.4393 53.703 80.3982L53.6881 83.4732C53.6881 85.0821 54.9825 86.3879 56.6028 86.3879C58.2231 86.3879 59.5175 85.0821 59.5175 83.4732L59.5053 80.3836C67.8277 79.448 75.3127 74.6358 79.509 67.4423C80.3216 66.0491 79.9025 64.3323 78.5005 63.525C77.0988 62.7176 75.2791 63.1344 74.4665 64.5276C70.8161 70.7855 64.0146 74.7291 56.6028 74.7291C49.1234 74.7291 42.3977 70.7622 38.7727 64.4139C38.3731 63.7144 37.7936 63.2218 37.0699 63.0207Z" fill="white"/>
</svg>
