<svg width="96" height="31" viewBox="0 0 96 31" fill="none" xmlns="http://www.w3.org/2000/svg">
<path d="M16.6767 19.6364H25.3776H25.6137C27.4762 19.6364 28.9861 18.1265 28.9861 16.264V16.0279V3.6173V3.38123C28.9861 1.51868 27.4762 0.00878906 25.6137 0.00878906H25.3776H4.36731H4.11438C2.25183 0.00878906 0.741937 1.51868 0.741937 3.38123V3.6173V16.0279C0.741937 18.0176 2.36071 19.6364 4.35045 19.6364H13.0514V26.5331H0L0 26.7691C0 28.6317 1.50989 30.1416 3.37244 30.1416H26.3556C28.2182 30.1416 29.7281 28.6317 29.7281 26.7691V26.5331H16.6767V19.6364ZM4.36731 3.6173H25.3776V16.0279H4.36731V3.6173Z" fill="white"/>
<path d="M36.709 14.7295H53.8916V11.121H36.709V3.6173H53.8916V0.00878906H36.1189C34.4519 0.00878906 33.1005 1.36014 33.1005 3.02713V3.63416V11.121C33.1005 13.1107 34.7193 14.7295 36.709 14.7295Z" fill="white"/>
<path d="M33.1005 20.2431V20.631V26.5327C33.1005 28.5225 34.7193 30.1413 36.709 30.1413H58.3601H58.5962C60.4587 30.1413 61.9686 28.6314 61.9686 26.7688V26.5327V20.631V20.3949C61.9686 18.5324 60.4587 17.0225 58.5962 17.0225H36.3212C34.5425 17.0225 33.1005 18.4644 33.1005 20.2431ZM58.3601 26.5327H36.709V20.631H58.3601V26.5327Z" fill="white"/>
<path d="M61.159 3.38123C61.159 1.51868 59.6492 0.00878906 57.7866 0.00878906H57.5505V16.0279H61.159V9.8226H64.3123V6.21408H61.159V3.38123Z" fill="white"/>
<path d="M92.2533 0L92.0172 0V30.1328H95.6257V3.37244C95.6257 1.50989 94.1158 0 92.2533 0Z" fill="white"/>
<path d="M80.0448 0L75.9135 0C71.3776 0 67.6848 3.67596 67.6848 8.22876V21.9209C67.6848 26.4568 71.3607 30.1496 75.9135 30.1496H80.0448C84.5807 30.1496 88.2735 26.4737 88.2735 21.9209V8.22876C88.2735 3.67596 84.5976 0 80.0448 0ZM84.665 21.4825C84.665 24.2647 82.4055 26.5243 79.6232 26.5243H76.3182C73.536 26.5243 71.2764 24.2647 71.2764 21.4825V8.65032C71.2764 5.86805 73.536 3.60851 76.3182 3.60851H79.6232C82.4055 3.60851 84.665 5.86805 84.665 8.65032V21.4825Z" fill="white"/>
</svg>
