<svg width="96" height="31" viewBox="0 0 96 31" fill="none" xmlns="http://www.w3.org/2000/svg">
<path d="M16.8652 19.8581H25.5661H25.8022C27.6647 19.8581 29.1746 18.3482 29.1746 16.4856V16.2496V3.83898V3.60291C29.1746 1.74036 27.6647 0.230469 25.8022 0.230469H25.5661H4.55579H4.30286C2.44031 0.230469 0.930414 1.74036 0.930414 3.60291V3.83898V16.2496C0.930414 18.2393 2.54919 19.8581 4.53893 19.8581H13.2398V26.7547H0.188477V26.9908C0.188477 28.8533 1.69837 30.3632 3.56092 30.3632H26.5441C28.4067 30.3632 29.9166 28.8533 29.9166 26.9908V26.7547H16.8652V19.8581ZM4.55579 3.83898H25.5661V16.2496H4.55579V3.83898Z" fill="#303030"/>
<path d="M36.8976 14.9512H54.0802V11.3427H36.8976V3.83898H54.0802V0.230469H36.3074C34.6404 0.230469 33.2891 1.58182 33.2891 3.2488V3.85584V11.3427C33.2891 13.3324 34.9078 14.9512 36.8976 14.9512Z" fill="#303030"/>
<path d="M33.2891 20.4648V20.8527V26.7544C33.2891 28.7442 34.9078 30.3629 36.8976 30.3629H58.5487H58.7847C60.6473 30.3629 62.1572 28.853 62.1572 26.9905V26.7544V20.8527V20.6166C62.1572 18.754 60.6473 17.2441 58.7847 17.2441H36.5097C34.731 17.2441 33.2891 18.6861 33.2891 20.4648ZM58.5487 26.7544H36.8976V20.8527H58.5487V26.7544Z" fill="#303030"/>
<path d="M61.3478 3.60291C61.3478 1.74036 59.8379 0.230469 57.9753 0.230469H57.7393V16.2496H61.3478V10.0443H64.501V6.43576H61.3478V3.60291Z" fill="#303030"/>
<path d="M92.4412 0.222656H92.2051V30.3554H95.8136V3.5951C95.8136 1.73255 94.3037 0.222656 92.4412 0.222656Z" fill="#303030"/>
<path d="M80.233 0.222656H76.1018C71.5659 0.222656 67.873 3.89862 67.873 8.45142V22.1435C67.873 26.6795 71.549 30.3723 76.1018 30.3723H80.233C84.769 30.3723 88.4618 26.6963 88.4618 22.1435V8.45142C88.4618 3.89862 84.7858 0.222656 80.233 0.222656ZM84.8533 21.7051C84.8533 24.4874 82.5938 26.7469 79.8115 26.7469H76.5065C73.7242 26.7469 71.4647 24.4874 71.4647 21.7051V8.87297C71.4647 6.09071 73.7242 3.83117 76.5065 3.83117H79.8115C82.5938 3.83117 84.8533 6.09071 84.8533 8.87297V21.7051Z" fill="#303030"/>
</svg>
