<svg width="114" height="114" viewBox="0 0 114 114" fill="none" xmlns="http://www.w3.org/2000/svg">
<circle cx="56.6133" cy="57.375" r="56.6133" fill="#E1F2FF"/>
<path d="M76.2924 32.9736C75.4621 32.9737 74.6656 33.3036 74.0785 33.8906C73.4913 34.4778 73.1615 35.2751 73.1615 36.1055V38.4932C69.8179 35.756 65.8 33.9545 61.5179 33.2861C56.8852 32.5631 52.1419 33.1961 47.8607 35.1084C43.5796 37.0207 39.9432 40.1307 37.39 44.0635C34.8376 47.9951 33.4761 52.5811 33.4711 57.2686L33.472 57.7812C33.5379 63.0671 35.3269 68.1925 38.5736 72.376C41.9251 76.6945 46.6349 79.7572 51.9418 81.0684C57.2486 82.3794 62.8427 81.8624 67.8197 79.6016C72.792 77.3428 76.8582 73.4749 79.3627 68.6221L79.4349 68.4834C79.5958 68.1564 79.699 67.8035 79.7386 67.4404C79.7839 67.0256 79.7456 66.6059 79.6263 66.2061C79.507 65.8061 79.3085 65.4336 79.0433 65.1113C78.7783 64.7893 78.4516 64.5231 78.0824 64.3291C77.7129 64.135 77.3078 64.017 76.892 63.9814C76.4762 63.946 76.0574 63.9935 75.6605 64.1221C75.2635 64.2507 74.8964 64.4578 74.5804 64.7305C74.2681 65 74.0124 65.3286 73.8275 65.6973C72.7383 67.7433 71.2685 69.5633 69.4974 71.0586L69.4955 71.0596C66.8346 73.3252 63.5729 74.7692 60.1068 75.2158C56.6405 75.6623 53.1184 75.0927 49.9701 73.5752C46.822 72.0578 44.1824 69.6584 42.3724 66.6689C40.5624 63.6793 39.66 60.2274 39.7748 56.7344C39.8896 53.2416 41.0167 49.8575 43.0189 46.9932C45.0213 44.1287 47.813 41.9072 51.0541 40.5996C54.2951 39.2922 57.8464 38.9539 61.2758 39.627C64.2981 40.2201 67.1106 41.577 69.4515 43.5576H65.7084C64.8781 43.5577 64.0816 43.8876 63.4945 44.4746C62.9073 45.0618 62.5775 45.8591 62.5775 46.6895C62.5776 47.5197 62.9074 48.3162 63.4945 48.9033C64.0816 49.4904 64.8781 49.8202 65.7084 49.8203H76.2924C77.1226 49.8203 77.9191 49.4903 78.5062 48.9033C79.0933 48.3162 79.4231 47.5197 79.4232 46.6895V36.1055C79.4232 35.2751 79.0934 34.4778 78.5062 33.8906C77.9191 33.3037 77.1226 32.9736 76.2924 32.9736Z" fill="#6ABEFE" stroke="#6ABEFE" stroke-width="0.97"/>
</svg>
